PathFileType        4      (X/Y/Z)      C:\Users\pc\Desktop\IMUTRC\Sujet_04\Sujet_04_Tpose.trc         
DataRate	CameraRate	NumFrames	NumMarkers	Units	OrigDataRate	OrigDataStartFrame	OrigNumFrames
60.0	60.0	4	64	mm	60.0	19	149
Frame#	Time	pHipOrigin			pRightASI			pLeftASI			pRightCSI			pLeftCSI			pRightIschialTub			pLeftIschialTub			pSacrum			pL5SpinalProcess			pL3SpinalProcess			pT12SpinalProcess			pIJ			pT4SpinalProcess			pT8SpinalProcess			pPX			pC7SpinalProcess			pTopOfHead			pRightAuricularis			pLeftAuricularis			pBackOfHead			pRightAcromion			pLeftAcromion			pRightArmLatEpicondyle			pRightArmMedEpicondyle			pLeftArmLatEpicondyle			pLeftArmMedEpicondyle			pRightUlnarStyloid			pRightRadialStyloid			pRightOlecranon			pLeftUlnarStyloid			pLeftRadialStyloid			pLeftOlecranon			pRightTopOfHand			pRightPinky			pRightBallHand			pLeftTopOfHand			pLeftPinky			pLeftBallHand			pRightGreaterTrochanter			pRightKneeLatEpicondyle			pRightKneeMedEpicondyle			pRightPatella			pLeftGreaterTrochanter			pLeftKneeLatEpicondyle			pLeftKneeMedEpicondyle			pLeftPatella			pRightTibialTub			pRightLatMalleolus			pRightMedMalleolus			pLeftTibialTub			pLeftLatMalleolus			pLeftMedMalleolus			pRightHeelFoot			pRightFirstMetatarsal			pRightFifthMetatarsal			pRightPivotFoot			pRightHeelCenter			pRightToe			pLeftHeelFoot			pLeftFirstMetatarsal			pLeftFifthMetatarsal			pLeftPivotFoot			pLeftHeelCenter			pLeftToe			
		X1	Y1	Z1	X2	Y2	Z2	X3	Y3	Z3	X4	Y4	Z4	X5	Y5	Z5	X6	Y6	Z6	X7	Y7	Z7	X8	Y8	Z8	X9	Y9	Z9	X10	Y10	Z10	X11	Y11	Z11	X12	Y12	Z12	X13	Y13	Z13	X14	Y14	Z14	X15	Y15	Z15	X16	Y16	Z16	X17	Y17	Z17	X18	Y18	Z18	X19	Y19	Z19	X20	Y20	Z20	X21	Y21	Z21	X22	Y22	Z22	X23	Y23	Z23	X24	Y24	Z24	X25	Y25	Z25	X26	Y26	Z26	X27	Y27	Z27	X28	Y28	Z28	X29	Y29	Z29	X30	Y30	Z30	X31	Y31	Z31	X32	Y32	Z32	X33	Y33	Z33	X34	Y34	Z34	X35	Y35	Z35	X36	Y36	Z36	X37	Y37	Z37	X38	Y38	Z38	X39	Y39	Z39	X40	Y40	Z40	X41	Y41	Z41	X42	Y42	Z42	X43	Y43	Z43	X44	Y44	Z44	X45	Y45	Z45	X46	Y46	Z46	X47	Y47	Z47	X48	Y48	Z48	X49	Y49	Z49	X50	Y50	Z50	X51	Y51	Z51	X52	Y52	Z52	X53	Y53	Z53	X54	Y54	Z54	X55	Y55	Z55	X56	Y56	Z56	X57	Y57	Z57	X58	Y58	Z58	X59	Y59	Z59	X60	Y60	Z60	X61	Y61	Z61	X62	Y62	Z62	X63	Y63	Z63	X64	Y64	Z64	
19	0.3	-40.21798	1006.83637	-745.0149999999999	33.86169	1114.60439	-599.4559499999999	32.07037	1111.88852	-893.4054899999999	-13.81049	1187.00831	-626.4990799999999	-15.2551	1184.75472	-867.1135599999999	-100.54495	946.56719	-683.9368299999999	-101.23837	945.46928	-804.2440699999999	-112.15963	1030.35465	-744.7838599999999	-71.59494	1128.12595	-745.5350599999999	-59.63356	1244.6772	-745.3617099999999	-60.38476	1351.69401	-744.3793699999999	102.10514	1570.46597	-745.9973399999999	-53.85511	1551.62823	-741.6634999999999	-61.30931	1458.59526	-742.9347599999999	97.13567	1442.99345	-747.8464399999999	-47.44104	1607.73694	-739.6410499999998	24.1539	1848.87148	-737.2140999999999	31.78145	1751.21575	-672.9577799999998	11.26797	1756.87862	-808.5778999999999	-31.72367	1755.31844	-732.6491299999999	-27.10091	1589.65041	-552.9972499999999	-43.22277	1571.62165	-936.5126899999999	22.47815	1448.59855	-279.6189899999999	64.25632	1403.87338	-307.0088199999999	40.73804	1470.44107	-1209.83317	97.88687	1445.4204	-1185.33256	73.55961	1369.08713	-42.760499999999915	73.21291	1421.49764	-30.914679999999912	41.72038	1402.13984	-299.0923499999999	122.04077	1416.0659	-1447.2695	101.64286	1464.25813	-1459.51981	77.02668	1435.0192	-1191.45771	107.47909	1393.7611	184.5057700000001	101.23837	1347.88024	89.97040000000008	96.03777	1373.47875	7.685330000000085	214.38033	1451.3722	-1651.99983	198.08512	1410.05631	-1556.5977	154.2845	1431.32099	-1485.23389	-39.81349	975.45941	-569.4080399999999	-83.61411	543.11611	-592.34847	-84.42309	541.09365	-676.48264	-36.92427	540.63138	-637.65148	-37.9066	973.72588	-920.6219699999999	-89.79705	542.13377	-900.51297	-94.53537	540.05353	-816.49437	-45.30301	538.84006	-853.12972	-27.5054	500.52896000000004	-636.72693	-122.6764	95.22878000000004	-592.05954	-123.4276	93.49525000000004	-658.33832	-35.3063	500.00890000000004	-853.53421	-123.08089	93.61082000000006	-903.22884	-126.95245	91.76172000000005	-837.06564	-168.44169	6.067370000000039	-621.18291	4.16048	4.115016720200785E-14	-672.03323	8.89881	1.386830000000036	-587.55236	30.45241	-0.05777999999996128	-632.27753	-125.85455	7.049700000000038	-623.55207	121.00065	-0.520059999999961	-637.30477	-168.49948	3.409280000000053	-866.82464	5.48952	4.39162000000005	-820.59707	7.91647	0.05778000000005542	-905.07795	30.68355	2.138020000000053	-860.98841	-125.91233	5.431740000000053	-865.72673	121.34736	1.0979000000000527	-858.27254	
20	0.317	-40.1602	1006.83637	-744.8994299999999	33.91948	1114.66217	-599.3981699999999	32.01259	1111.88852	-893.3476999999999	-13.7527	1187.00831	-626.4412999999998	-15.31288	1184.75472	-867.0557699999999	-100.48717	946.56719	-683.7634799999998	-101.29615	945.46928	-804.0707199999999	-112.15963	1030.35465	-744.6105099999999	-71.59494	1128.06816	-745.4194899999999	-59.69134	1244.6772	-745.2461399999999	-60.50033	1351.69401	-744.3215899999999	101.93178	1570.52375	-746.1129099999999	-54.02847	1551.62823	-741.7790699999999	-61.48266	1458.59526	-742.9347599999999	97.0201	1443.10902	-747.9042199999999	-47.67218	1607.73694	-739.8143999999999	23.98055	1848.87148	-737.4452399999999	31.55031	1751.27353	-673.1889199999999	11.09462	1756.87862	-808.8090399999999	-31.9548	1755.37623	-732.8802699999999	-27.27426	1589.88154	-553.1705999999999	-43.39613	1571.50609	-936.6282599999998	22.47815	1449.06082	-279.67676999999986	64.25632	1404.33565	-307.0088199999999	40.5069	1470.38329	-1209.94874	97.71352	1445.4204	-1185.44813	73.79075	1369.72276	-42.760499999999915	73.50183	1422.13327	-30.972469999999912	41.72038	1402.60212	-299.0923499999999	121.80963	1416.18147	-1447.44286	101.41172	1464.3737	-1459.63538	76.79554	1435.0192	-1191.63107	107.99915	1394.51229	184.4479900000001	101.64286	1348.57365	89.97040000000008	96.32669	1374.11438	7.627550000000085	214.03363	1451.66112	-1652.23097	197.7962	1410.28745	-1556.77105	153.99558	1431.49435	-1485.46503	-39.75571	975.45941	-569.2924699999999	-83.55632	543.11611	-592.29068	-84.42309	541.15144	-676.42485	-36.92427	540.63138	-637.5937	-37.96439	973.72588	-920.5063999999999	-89.79705	542.19156	-900.45519	-94.53537	540.05353	-816.43659	-45.30301	538.84006	-853.07194	-27.44762	500.52896000000004	-636.66914	-122.6764	95.22878000000004	-592.00176	-123.4276	93.49525000000004	-658.28053	-35.3063	500.00890000000004	-853.47643	-123.08089	93.61082000000006	-903.22884	-126.95245	91.76172000000005	-837.06564	-168.44169	6.067370000000039	-621.18291	4.16048	4.115016720200785E-14	-672.03323	8.89881	1.386830000000036	-587.55236	30.45241	-0.05777999999996128	-632.27753	-125.85455	7.049700000000038	-623.55207	121.00065	-0.520059999999961	-637.30477	-168.49948	3.409280000000053	-866.82464	5.48952	4.39162000000005	-820.59707	7.91647	0.05778000000005542	-905.07795	30.68355	2.138020000000053	-860.98841	-125.91233	5.431740000000053	-865.72673	121.34736	1.0979000000000527	-858.27254	
21	0.333	-40.1602	1006.83637	-744.7838599999999	33.97726	1114.66217	-599.2825999999999	31.89702	1111.88852	-893.2321299999999	-13.69492	1187.00831	-626.3257299999999	-15.37067	1184.75472	-866.9401999999999	-100.42939	946.56719	-683.5901199999998	-101.29615	945.46928	-803.8973599999999	-112.15963	1030.35465	-744.4949399999999	-71.59494	1128.06816	-745.3039199999998	-59.69134	1244.6772	-745.1305699999999	-60.55811	1351.69401	-744.3215899999999	101.75843	1570.58153	-746.2862599999999	-54.20182	1551.62823	-741.8368599999999	-61.59823	1458.59526	-742.9925499999999	96.90453	1443.16681	-747.9620099999999	-47.84553	1607.73694	-739.9299699999999	23.8072	1848.92926	-737.7341599999999	31.31918	1751.27353	-673.4200599999999	10.97905	1756.87862	-809.0401799999999	-32.12816	1755.37623	-733.1691899999998	-27.44762	1590.0549	-553.2861699999999	-43.56948	1571.4483	-936.7438299999999	22.47815	1449.40753	-279.67676999999986	64.25632	1404.68236	-307.0665999999999	40.27577	1470.44107	-1210.06431	97.54016	1445.47819	-1185.62148	73.9641	1370.18504	-42.760499999999915	73.73297	1422.59554	-31.03024999999991	41.66259	1402.94883	-299.0923499999999	121.5785	1416.4126	-1447.61621	101.1228	1464.60484	-1459.80873	76.62219	1435.07698	-1191.80442	108.46143	1394.97457	184.39020000000008	101.93178	1349.03593	89.91261000000009	96.55783	1374.57666	7.569760000000084	213.62914	1452.1234	-1652.46211	197.50727	1410.69194	-1557.05997	153.76444	1431.78327	-1485.63838	-39.69792	975.40163	-569.1768999999999	-83.55632	543.11611	-592.17511	-84.42309	541.15144	-676.36707	-36.86648	540.63138	-637.53591	-38.02217	973.72588	-920.3908299999999	-89.85483	542.19156	-900.39741	-94.53537	540.05353	-816.37881	-45.3608	538.84006	-853.01415	-27.44762	500.52896000000004	-636.61136	-122.6764	95.22878000000004	-592.00176	-123.4276	93.49525000000004	-658.28053	-35.36409	500.00890000000004	-853.41864	-123.08089	93.61082000000006	-903.22884	-126.95245	91.76172000000005	-837.06564	-168.44169	6.067370000000039	-621.18291	4.16048	4.115016720200785E-14	-672.03323	8.95659	1.386830000000036	-587.55236	30.45241	-0.05777999999996128	-632.27753	-125.85455	7.049700000000038	-623.55207	121.05844	-0.520059999999961	-637.30477	-168.49948	3.409280000000053	-866.82464	5.48952	4.39162000000005	-820.59707	7.91647	0.05778000000005542	-905.07795	30.68355	2.138020000000053	-860.98841	-125.91233	5.431740000000053	-865.66895	121.34736	1.0979000000000527	-858.27254	
22	0.35	-40.1602	1006.83637	-744.6682899999998	34.03505	1114.66217	-599.2248199999999	31.83924	1111.88852	-893.1743499999999	-13.63713	1187.00831	-626.2101599999999	-15.48623	1184.75472	-866.8246399999999	-100.42939	946.56719	-683.4745499999999	-101.29615	945.46928	-803.7817899999999	-112.15963	1030.29686	-744.3215899999999	-71.59494	1128.06816	-745.1883499999999	-59.74913	1244.6772	-745.0727899999999	-60.6159	1351.63623	-744.2637999999998	101.58507	1570.63932	-746.4018299999999	-54.31739	1551.62823	-741.9524199999998	-61.7138	1458.59526	-742.9925499999999	96.78897	1443.22459	-748.0197899999998	-48.01888	1607.73694	-740.0455399999998	23.63384	1848.92926	-737.9652999999998	31.08804	1751.33132	-673.5934099999998	10.80569	1756.82084	-809.2135299999999	-32.3593	1755.43401	-733.4003299999999	-27.56319	1590.22825	-553.4017399999999	-43.68505	1571.33273	-936.8593999999999	22.47815	1449.75424	-279.7345599999999	64.25632	1405.02907	-307.0665999999999	40.10241	1470.44107	-1210.17988	97.36681	1445.59375	-1185.73705	74.19524	1370.58953	-42.818279999999916	73.9641	1423.05782	-31.08803999999991	41.72038	1403.29553	-299.1501299999999	121.34736	1416.58596	-1447.78956	100.89166	1464.77819	-1459.9243	76.44884	1435.13477	-1191.91999	108.86592	1395.43685	184.2746300000001	102.2207	1349.4982	89.79705000000008	96.84675	1374.98115	7.511980000000085	213.22465	1452.52789	-1652.63546	197.21835	1410.98087	-1557.23333	153.47552	1432.01441	-1485.81174	-39.64014	975.40163	-569.0613299999999	-83.49854	543.11611	-592.11733	-84.42309	541.15144	-676.30928	-36.86648	540.63138	-637.47813	-38.07996	973.72588	-920.2752599999999	-89.91261	542.19156	-900.28184	-94.53537	540.05353	-816.26324	-45.3608	538.84006	-852.95637	-27.44762	500.52896000000004	-636.61136	-122.6764	95.22878000000004	-592.00176	-123.4276	93.49525000000004	-658.28053	-35.36409	500.00890000000004	-853.36086	-123.08089	93.61082000000006	-903.17106	-126.95245	91.76172000000005	-837.00786	-168.44169	6.067370000000039	-621.12513	4.16048	4.115016720200785E-14	-672.03323	8.95659	1.386830000000036	-587.55236	30.45241	-0.05777999999996128	-632.27753	-125.85455	7.049700000000038	-623.55207	121.05844	-0.5200599999999609	-637.36256	-168.49948	3.409280000000053	-866.82464	5.48952	4.39162000000005	-820.59707	7.91647	0.05778000000005542	-905.07795	30.68355	2.138020000000053	-860.98841	-125.91233	5.431740000000053	-865.66895	121.34736	1.0401200000000526	-858.27254	
